<?xml version="1.0" encoding="utf-8"?>
<!-- Generator: Adobe Illustrator 26.0.3, SVG Export Plug-In . SVG Version: 6.00 Build 0)  -->
<svg version="1.1" id="Layer_1" xmlns="http://www.w3.org/2000/svg" xmlns:xlink="http://www.w3.org/1999/xlink" x="0px" y="0px"
	 viewBox="0 0 1275.4 293" style="enable-background:new 0 0 1275.4 293;" xml:space="preserve">
<style type="text/css">
	.st0{fill:#2E8344;}
	.st1{fill:#33844C;}
	.st2{fill:#FFFFFF;}
	.st3{fill:none;stroke:#FFFFFF;stroke-width:0.56;stroke-miterlimit:10;}
</style>
<g>
	<path class="st0" d="M286.9,154.9c3.5-6.3,5.3-13.7,5.3-22.1c0-14.7-5.5-24.9-16.8-31.4c-9.5-5.4-22-7.7-36.4-10.2l-0.8-0.1
		c-12.5-2.3-25.5-4.6-34.6-9.4c-9.1-4.8-13.1-11.3-13.1-21.2c0-10,4.3-17.9,12.8-23.4c7.7-5,18.3-7.8,30-7.8
		c13.8,0,22.6,3.9,27.4,7.2c8,5.4,12.5,13.6,13.4,24.6l0.1,0.8c0.4,0.7,2.3,4,6.6,3.7c4.6-0.4,5.5-3.9,5.6-4.6l-0.1-0.9
		c-0.6-7.6-2.7-14.4-6-20.2c-3.1-5.4-7.4-9.9-12.8-13.5c-11.4-7.6-24.9-9.2-34.2-9.2c-14,0-27,3.5-36.6,9.8
		c-12,7.8-18.3,19.4-18.3,33.6c0,7.6,1.9,14.3,5.5,19.8c3.3,4.9,7.9,8.9,14.1,12.2c10.7,5.6,24.6,8.1,38.1,10.6l0.8,0.2
		c13.3,2.4,24.8,4.4,32.5,8.8c7.5,4.3,10.7,10.5,10.7,20.8c0,11.9-4.4,20.4-13.4,25.9c-7.6,4.6-18.7,7.1-32.1,7.1
		c-13.5,0-24.9-2.5-33-7.2c-3.2-1.9-6-4.1-8.3-6.7c-6.4-6.2-11.6-14.5-15.2-24.5c-2.4,0.7-4.2,2.9-4.4,5.5l-0.1,0.9v0
		c0.7,8.2,3,15.5,7,21.6c3.6,5.6,8.6,10.3,14.8,13.8c10,5.8,23.1,8.8,38.7,8.8l0.4,0c15.8,0,28.7-3,38.4-8.9
		C278.9,165.5,283.6,160.7,286.9,154.9"/>
	<path class="st0" d="M789.7,170.2c0-0.3,0-0.6-0.1-1l0-0.2v-64.4c0-11.8-4-22.5-11.3-30c-7.2-7.5-17.4-11.6-28.7-11.6
		c-12.1,0-22.9,4.8-30.3,13.5l-1.8,2l0-58.9c0.1-0.4,0.1-0.7,0.1-1c0-3.4-2.8-6.2-6.2-6.2s-6.2,2.8-6.2,6.2c0,0.3,0,0.5,0,0.7l0,0.1
		l0,149.9l0,0.1c0,0.2,0,0.5,0,0.7c0,3.4,2.8,6.2,6.2,6.2s6.2-2.8,6.2-6.2c0-0.3,0-0.6-0.1-1l0-0.2v-64.2
		c0-17.7,12.1-29.7,30.1-29.7c17.9,0,29.9,11.8,29.9,29.5l0,64.8c0,0.2-0.1,0.5-0.1,0.7c0,3.4,2.8,6.2,6.2,6.2
		C786.9,176.4,789.7,173.6,789.7,170.2"/>
	<path class="st0" d="M1218.3,256.5c0-0.2,0-0.5,0-0.7l-0.1-1.1h0.2V106.3c-0.1-25.4-15.9-43.2-38.6-43.3
		c-14.8,0-27.1,7.7-33.6,20.9l-0.9,1.8l-0.9-1.8c-6.5-13.2-18.8-20.8-33.6-20.9c-11.5,0-21.7,4.7-28.7,13.2l-1.8,2.2l0-8.3
		c0.1-0.4,0.1-0.8,0.1-1.1c0-3.4-2.8-6.2-6.2-6.2c-3.4,0-6.2,2.8-6.2,6.2c0,0.2,0,0.4,0,0.5l0,99.4l0,0.1c-0.1,0.4-0.1,0.7-0.1,1
		c0,3.4,2.8,6.2,6.2,6.2c3.4,0,6.2-2.8,6.2-6.2c0-0.2,0-0.5,0-0.7l0-0.1v-62.6c-0.1-18.6,11.4-31.2,28.4-31.3
		c17.2,0.1,28.4,12.3,28.4,31.1V169l0,0.1c-0.1,0.4-0.1,0.8-0.1,1.2c0,3.4,2.8,6.2,6.2,6.2c3.4,0,6.2-2.8,6.2-6.2
		c0-0.3,0-0.6-0.1-0.8l-0.2-1.1h0.2v-61.8c-0.1-18.6,11.4-31.2,28.4-31.3c17.2,0.1,28.4,12.3,28.4,31.1v148.7l0,0.1
		c-0.1,0.5-0.2,0.9-0.2,1.4c0,3.4,2.8,6.2,6.2,6.2C1215.5,262.7,1218.3,259.9,1218.3,256.5"/>
	<path class="st0" d="M665.6,166.1l-0.1-0.1l-41-56.2l31-33.7l0.7-0.8c0.9-0.7,1.6-1.5,2-2.5l0.1-0.1c0.3-0.8,0.5-1.6,0.5-2.5
		c0-3.5-2.9-6.4-6.4-6.4c-2.2,0-4.3,1.2-5.5,3.1l-0.1,0.2l-57,63.1l0-110.8c0.1-0.4,0.1-0.7,0.1-1.1c0-3.4-2.8-6.2-6.2-6.2
		c-3.4,0-6.2,2.8-6.2,6.2c0,0.2,0,0.4,0,0.7l0,0.1l0,150.8l0,0.1c0,0.3-0.1,0.6-0.1,0.9c0,3.4,2.8,6.2,6.2,6.2
		c3.4,0,6.2-2.8,6.2-6.2c0-0.3,0-0.5-0.1-0.8l0-0.1v-21.4l26.5-29.3l39.6,54.1c1,2.1,3.2,3.5,5.5,3.5c3.4,0,6.2-2.8,6.2-6.2
		C667.4,168.9,666.8,167.3,665.6,166.1"/>
	<path class="st0" d="M533.2,62.8c-3.4,0-6.2,2.8-6.2,6.2c0,0.3,0,0.6,0.1,0.8l0,0.1v64.7c0,18-11.8,29.6-30.1,29.7h-0.1
		c-8.8,0-16.2-2.8-21.6-8.2c-5.3-5.3-8.2-12.7-8.2-21.2V70.1l0-0.1c0.1-0.4,0.1-0.8,0.1-1.1c0-3.4-2.8-6.2-6.2-6.2s-6.2,2.8-6.2,6.2
		c0,0.3,0,0.7,0.1,1l0.2,1.2H455v63.8c0,11.8,4,22.5,11.3,30c7.1,7.4,18.3,11.7,29.8,11.7l3.2-0.1c11.3-0.4,20.3-3.3,26.7-8.5
		c8.7-7.1,11.1-14.9,12.2-21.5c1-5.8,1.1-15.9,1.1-16l0-60.6c0.1-0.4,0.1-0.6,0.1-0.9C539.3,65.6,536.6,62.8,533.2,62.8"/>
	<path class="st0" d="M424,163.5c-0.4,0-2.9,0-2.9,0c-1.6,0-3.1-0.6-3.9-1.6c-1.2-1.5-1.9-3.9-1.9-7V96.9c0-5.4-2.2-13.7-8.3-20.8
		c-3.5-4.1-8-7.3-13.3-9.5c-6-2.5-13-3.8-20.8-3.8c-9.8,0-20,3.4-27.9,9.4c-8.7,6.6-14.2,15.8-15.4,25.9l0,0.4l0,0.5
		c0,0.2,0,0.3,0,0.4c0,3.4,2.8,6.2,6.2,6.2s6.2-2.8,6.2-6.2c0-0.2,0-0.4,0-0.7l0-0.1l0-0.1c1-6.4,4.7-12.3,10.5-16.6
		c5.8-4.4,13.4-7,20.6-7c11.2,0,19.6,3.1,24.9,9.2c4.2,4.8,5.3,10.3,5.3,12.8c0,2.9-0.2,5.4-3.2,6.9c-3.3,1.7-9.3,2.4-16.2,3.2
		l-18.2,2.1c-11.8,1.4-20.4,3.9-26.8,8c-4.2,2.7-7.5,6.2-9.8,10.2c-2.4,4.4-3.7,9.5-3.7,15.3c0,9,4.3,17.8,11.7,24.1
		c7.5,6.4,17.7,9.9,28.8,9.9l1.5,0l1.6-0.1c10.1-0.6,20-3.9,27.7-9.4c2.2-1.5,4.2-3.2,5.9-5.1l1.2-1.3l0.5,1.7
		c0.8,2.7,2,5.1,3.6,7.1c1.6,2,3.7,3.5,6.2,4.6c0.9,0.4,1.8,0.6,2.7,0.9l0.2,0.1c2.2,0.6,6,0.6,7.1,0.5c2.9-0.3,6.4-1.9,6.4-5.9
		C430.3,166.3,427.5,163.5,424,163.5 M403.1,141.5c0,3.2-1.3,9.6-10.1,15.5c-6.7,4.6-15.8,7.2-24.8,7.4h-0.6
		c-8.8,0-16.8-2.5-22.5-7.1c-5-4-7.7-9.2-7.7-14.6c0-7,2.4-11.8,7.4-15.2c4.5-3,11.2-5,20.4-6.2l17.4-2.1c7.9-1,14.1-1.8,19-4.4
		l1.5-0.8V141.5z"/>
	<path class="st0" d="M1044.1,169.8c0-3.5-2.9-6.3-6.4-6.3c-0.4,0-2.9,0-2.9,0c-1.6,0-3.1-0.6-3.9-1.6c-1.2-1.5-1.9-3.9-1.9-7V96.9
		c0-5.4-2.2-13.7-8.3-20.8c-3.5-4.1-8-7.3-13.3-9.5c-6-2.5-13-3.8-20.8-3.8c-9.8,0-20,3.4-27.9,9.4c-8.7,6.6-14.2,15.8-15.4,25.9
		l0,0.4l0,0.5c0,0.2,0,0.3,0,0.4c0,3.4,2.8,6.2,6.2,6.2c3.4,0,6.2-2.8,6.2-6.2c0-0.2,0-0.4,0-0.7l0-0.1l0-0.1
		c1-6.4,4.7-12.3,10.5-16.6c5.8-4.4,13.4-7,20.6-7c11.2,0,19.6,3.1,24.9,9.2c4.2,4.8,5.3,10.3,5.3,12.8c0,2.9-0.2,5.4-3.2,6.9
		c-3.3,1.7-9.3,2.4-16.2,3.2l-18.2,2.1c-11.8,1.4-20.4,3.9-26.8,8c-4.2,2.7-7.5,6.2-9.8,10.2c-2.4,4.4-3.7,9.5-3.7,15.3
		c0,9,4.3,17.8,11.7,24.1c7.5,6.4,17.7,9.9,28.8,9.9l1.5,0l1.6-0.1c10.1-0.6,20-3.9,27.7-9.4c2.2-1.5,4.2-3.2,5.9-5.1l1.2-1.3
		l0.5,1.7c0.8,2.7,2,5.1,3.6,7.1c1.6,2,3.7,3.5,6.2,4.6c0.9,0.4,1.8,0.6,2.7,0.9l0.2,0.1c2.2,0.6,6,0.6,7.1,0.5
		C1040.7,175.4,1044.1,173.7,1044.1,169.8 M1016.9,141.5c0,3.2-1.3,9.6-10.1,15.5c-6.7,4.6-15.8,7.2-24.8,7.4h-0.6
		c-8.8,0-16.8-2.5-22.5-7.1c-5-4-7.7-9.2-7.7-14.6c0-7,2.4-11.8,7.4-15.2c4.5-3,11.2-5,20.4-6.2l17.4-2.1c7.9-1,14.1-1.8,19-4.4
		l1.5-0.8V141.5z"/>
	<path class="st1" d="M209.1,175.1c-38.8-1.3-67.4-23.1-84.6-41.2c-10.9-11.4-18.6-22.7-23.2-30.2c-1.6-2.7-6.9-11.8-9.3-15.7
		c-2-3.2-3.7-6-3.7-6.1l4.2-0.4c0,0,11.1,18.3,12.8,21.1c4.6,7.4,12,18,22.1,28.6c16.7,17.5,44.4,38.7,81.7,39.9L209.1,175.1z"/>
	<path class="st0" d="M1244.1,189.5c13.5-8.4,24.6-16.7,25.2-20.4c-0.1,1.6,4.7,27.6-12.6,54.4c-8.4,13-24.4,18.3-31.5,20.2
		c-2.9,0.8-6,1.3-9.2,1.6C1215.5,238.4,1211.9,209.6,1244.1,189.5"/>
	<path class="st1" d="M303.6,242.7c3.6-3.3,5.4-7.7,5.4-13.2c0-5.5-1.8-9.9-5.4-13.2c-3.5-3.2-8.2-4.8-13.8-4.8h-21.4l0,59h6.5v-23
		h14.9c0.9,0,1.8,0,2.6-0.1l12.7,23.1h7.4L299,245.7C300.7,244.9,302.2,243.9,303.6,242.7 M274.9,217.9h14.9c4,0,7.1,1,9.4,3.1
		c2.2,2,3.3,4.8,3.3,8.4c0,3.6-1.1,6.4-3.3,8.4c-2.3,2.1-5.4,3.1-9.4,3.1l-14.9,0V217.9z"/>
	<path class="st1" d="M377.5,232.3c-3.3-3.3-7.7-5-12.7-5c-6,0-11,2.4-14.4,7c-2.9,3.8-4.4,9.1-4.4,14.9c0,5.7,1.6,11,4.4,14.9
		c3.4,4.6,8.4,7,14.4,7h0c4.5,0,8.4-1.4,11.6-4c2.8-2.3,4.9-5.7,6.1-9.6l0.3-1l-6.2-1.9l-0.3,1c-0.8,2.8-2.2,5-4,6.6
		c-2,1.7-4.5,2.5-7.4,2.5c-3.9,0-7-1.5-9.2-4.4c-1.5-2-2.5-4.7-2.9-7.8l31-0.1v-3.2c0-3.2-0.5-6.3-1.4-9.1
		C381.1,236.9,379.5,234.3,377.5,232.3 M352.6,245.9c0.4-3.1,1.4-5.7,2.9-7.8c2.2-2.9,5.2-4.4,9.2-4.4c3.3,0,6.1,1,8.1,3.1
		c1.3,1.3,2.4,3.1,3.1,5.2c0.4,1.2,0.7,2.4,0.9,3.8L352.6,245.9z"/>
	<path class="st1" d="M437.6,271.1"/>
	<path class="st1" d="M448.3,254.7c0,5.9-4,9.9-10,9.9c-6,0-10-3.9-10-9.8v-26.7h-6.5v26.7c0,9.4,6.6,16.3,15.7,16.3
		c4.2,0,8-1.5,10.8-4.1v3.5h6.5v-42.4h-6.5V254.7z"/>
	<path class="st1" d="M521.1,249c-2.8-1.5-6.1-2.2-9.5-2.7c-6.9-1.3-10.6-2.6-10.6-6c0-4.5,4.9-6.1,9.1-6.2c2.4,0,4.3,0.5,6,1.5
		c1.6,1.1,2.4,2.7,2.6,4.9l0.1,1l6.4-0.5l-0.1-1c-0.6-7.6-6.3-12.4-15-12.4c-3.7,0-7.3,1-10.2,2.8c-3.4,2.2-5.4,5.9-5.4,9.9
		c0,2.3,0.7,4.4,2,6.2c3.5,4.2,8.8,5.4,13.9,6.2l0.8,0.1c2.4,0.4,5,0.9,6.6,1.8c1.6,0.9,2.3,2.1,2.3,4.3c0,1.6-0.5,2.9-1.5,3.9
		c-1.5,1.5-4.3,2.3-8.1,2.3h-0.3c-6.6,0-10.1-2.3-10.5-6.8l-0.1-1l-6.4,0.5l0.1,1c0.6,8.1,6.8,12.7,17,12.7h0.1
		c5.5,0,10.1-1.5,12.9-4.3c2.1-2.1,3.2-4.9,3.2-8.4C526.6,254.4,524.7,251,521.1,249"/>
	<path class="st1" d="M598.3,264.1c-0.2-0.3-0.5-0.8-0.5-1.9v-21.3c0-2.2-0.9-5.5-3.3-8.3c-1.4-1.6-3.2-2.9-5.2-3.8
		c-2.3-1-5-1.5-8-1.5c-3.8,0-7.8,1.3-10.9,3.7c-3.4,2.6-5.6,6.2-6,10.2l-0.1,1l6.4,0.7l0.1-1c0.3-2.2,1.5-4.2,3.5-5.8
		c2-1.5,4.5-2.4,7-2.4c3.8,0,6.6,1,8.4,3c1.3,1.5,1.7,3.3,1.7,4c0,1.1-0.1,1.4-0.6,1.6c-1.1,0.5-3.3,0.8-5.6,1.1l-6.7,0.8
		c-4.5,0.5-7.8,1.5-10.3,3.1c-1.7,1.1-3,2.5-3.9,4.1c-1,1.8-1.5,3.8-1.5,6.1c0,3.6,1.7,7.1,4.6,9.6c2.9,2.5,6.9,3.9,11.2,3.9l2.4,0
		L581,271c3.5-0.4,6.9-1.6,9.6-3.5c0.6-0.4,1.1-0.8,1.6-1.3c0.3,0.7,0.7,1.4,1.2,2c1.2,1.5,3.1,2.4,5.2,2.6l1,0.1l0.5-6.5l-1-0.1
		C598.6,264.3,598.4,264.1,598.3,264.1 M579.6,264.7h-0.2c-3,0-5.7-0.8-7.6-2.4c-1.6-1.3-2.5-2.9-2.5-4.6c0-2.2,0.7-3.7,2.3-4.8
		c1.5-1,3.8-1.7,7.1-2.1l6.4-0.8c2.5-0.3,4.6-0.6,6.4-1.3v8.5c0,1-0.4,2.9-3.3,4.9C585.8,263.7,582.7,264.6,579.6,264.7"/>
	<path class="st1" d="M658.1,227.4c-5.6,0-10.4,2.2-13.7,6.3v-22.3h-6.5v59.1h6.5v-5.6c3.3,4.1,8.1,6.3,13.7,6.3v0
		c12.9,0,18.7-11,18.7-21.9S671,227.4,658.1,227.4 M657.4,264.6c-9.6,0-13-8.3-13-15.4c0-7.1,3.4-15.4,13-15.4c9.6,0,13,8.3,13,15.4
		C670.4,256.4,667,264.6,657.4,264.6"/>
	<rect x="714.9" y="211.5" class="st1" width="6.5" height="59"/>
	<path class="st1" d="M791.1,232.3c-3.3-3.3-7.7-5-12.7-5c-6,0-11,2.4-14.4,7c-2.9,3.8-4.4,9.1-4.4,14.9c0,5.7,1.6,11,4.4,14.9
		c3.4,4.6,8.4,7,14.4,7h0c4.5,0,8.4-1.4,11.6-4c2.8-2.3,4.9-5.7,6.1-9.6l0.3-1l-6.2-1.9l-0.3,1c-0.8,2.8-2.2,5-4,6.6
		c-2,1.7-4.5,2.5-7.4,2.5c-3.9,0-7-1.5-9.2-4.4c-1.5-2-2.5-4.7-2.9-7.8l31-0.1v-3.2c0-3.2-0.5-6.3-1.4-9.1
		C794.7,236.9,793.1,234.3,791.1,232.3 M766.2,245.9c0.4-3.1,1.4-5.7,2.9-7.8c2.2-2.9,5.2-4.4,9.2-4.4c3.3,0,6.1,1,8.1,3.1
		c1.3,1.3,2.4,3.1,3.1,5.2c0.4,1.2,0.7,2.4,0.9,3.8L766.2,245.9z"/>
	<path class="st0" d="M911.2,54.5c-3,0-5.6,2.1-6.3,5.1l-0.1,0.2L868.8,149l-35.5-86l-1.5-3.4c-0.5-3-3.1-5.1-6.1-5.1
		c-3.4,0-6.2,2.8-6.2,6.2c0,0.4,0,0.8,0.1,1.2l0,0.2c0.2,0.7,0.4,1.4,0.8,2l0.1,0.2l41.6,101l-1.8,4.4c-2.1,5.1-7.4,17.6-11.9,23.1
		c-1.6,2-3.3,3.8-5.1,5.3c-6.2,5.4-14,5.8-19.5,5.2c-1.4-0.2-4.6-1.2-5.1-1.4c-1.6-0.8-2.6-0.9-4.1-1c-0.1,0-0.1,0-0.2,0
		c-1.1,0-2.3,0.5-3.2,1.4c-1.2,1.1-1.8,2.7-1.8,4.4c0,1.6,0.4,3.8,2.5,5.1c2.1,1.6,14.2,5.9,27.4,1.3c11.3-3.9,16.8-10,19.2-13.3
		c5.5-8,12.3-23.4,13.1-25.3L916.8,64c0.5-0.9,0.8-2,0.8-3.1C917.6,57.3,914.7,54.5,911.2,54.5"/>
	<path class="st1" d="M912.1,212.4h-24.7l0,59.1h7.5v-23h17.2c6.5,0,11.8-1.6,15.9-4.8c4.2-3.3,6.3-7.7,6.3-13.2
		c0-5.5-2.1-9.9-6.3-13.2C924,214.1,918.6,212.4,912.1,212.4 M894.9,218.9h17.2c4.6,0,8.2,1,10.9,3.1c2.6,2,3.8,4.8,3.8,8.4
		c0,3.6-1.3,6.4-3.8,8.4c-2.7,2.1-6.2,3.1-10.9,3.1l-17.2,0V218.9z"/>
	<path class="st1" d="M991.1,264.4c-0.2-0.3-0.5-0.8-0.5-1.9v-21.3c0-2.2-1-5.5-3.8-8.3c-1.6-1.6-3.6-2.9-6-3.8
		c-2.7-1-5.8-1.5-9.3-1.5c-4.4,0-9,1.3-12.5,3.7c-4,2.6-6.4,6.2-7,10.2l-0.1,1l7.4,0.7l0.1-1c0.3-2.2,1.7-4.2,4-5.8
		c2.3-1.5,5.2-2.3,8-2.3c4.4,0,7.7,1,9.7,3c1.6,1.5,2,3.3,2,4c0,1.1-0.1,1.4-0.7,1.6c-1.2,0.5-3.8,0.8-6.5,1.1l-7.7,0.8
		c-5.2,0.5-9,1.5-11.8,3.1c-2,1.1-3.5,2.5-4.5,4.1c-1.1,1.8-1.7,3.8-1.7,6.1c0,3.6,2,7.1,5.4,9.6c3.4,2.5,8,3.9,12.9,3.9l2.8,0
		l-0.1-0.1c4-0.4,8-1.6,11.1-3.5c0.7-0.4,1.3-0.8,1.8-1.3c0.4,0.7,0.8,1.4,1.4,2c1.4,1.5,3.5,2.4,6,2.6l1.2,0.1l0.6-6.5l-1.2-0.1
		C991.4,264.6,991.2,264.5,991.1,264.4 M969.5,265h-0.2c-3.5,0-6.6-0.8-8.8-2.4c-1.8-1.3-2.8-2.9-2.8-4.6c0-2.2,0.8-3.7,2.6-4.8
		c1.7-1,4.4-1.7,8.1-2.1l7.3-0.8c2.9-0.3,5.3-0.6,7.4-1.3v8.5c0,1-0.5,2.9-3.8,4.9C976.7,264.1,973.1,265,969.5,265"/>
	<path class="st1" d="M1053.1,234c-3.6-4.1-8.7-6.3-14.8-6.3c-13.9,0-20.1,11-20.1,21.9c0,10.9,6.2,21.9,20.1,21.9v0
		c6.1,0,11.2-2.2,14.8-6.3v5.6h7v-59.1h-7V234z M1039.1,265c-10.3,0-14-8.3-14-15.4s3.7-15.4,14-15.4c10.3,0,14,8.3,14,15.4
		S1049.4,265,1039.1,265"/>
	<path class="st1" d="M1117.7,248.9c-3.2-1.5-7-2.2-10.9-2.7c-7.9-1.3-12.2-2.6-12.2-6c0-4.5,5.6-6.1,10.5-6.2c2.7,0,5,0.5,6.9,1.5
		c1.9,1.1,2.8,2.7,3,4.9l0.1,1l7.4-0.5l-0.1-1c-0.7-7.6-7.3-12.4-17.3-12.4c-4.3,0-8.4,1-11.7,2.8c-3.9,2.2-6.2,5.9-6.2,9.9
		c0,2.3,0.8,4.4,2.3,6.2c4,4.2,10.1,5.4,16.1,6.2l0.9,0.1c2.8,0.4,5.7,0.9,7.6,1.8c1.9,0.9,2.6,2.1,2.6,4.3c0,1.6-0.6,2.9-1.7,3.9
		c-1.8,1.5-5,2.3-9.4,2.3h-0.2c-7.7,0.1-11.8-2.2-12.3-6.8l-0.1-1l-7.4,0.5l0.1,1c0.7,8.1,7.9,12.7,19.6,12.7h0.1
		c6.4,0,11.7-1.5,14.9-4.3c2.5-2.1,3.7-4.9,3.7-8.4C1124.1,254.4,1121.9,251,1117.7,248.9"/>
	<path class="st0" d="M65.5,54.3c0,0-2.4-13.1-0.9-19.4c0,0,3.5-11.7,6.8-16.4c0,0,5.5-8.7,5.8-10c0,0,9.1,9.7,10.3,25.5
		c0,0-0.5,15.6-0.6,17.3c0,0,6.5-11.6,16.6-16.2c0,0,16.6-9,18.7-13.8c0,0-0.5,19.3-4.1,27.7c0,0-5.1,11.5-17.7,16.3
		c0,0,10.7,2.4,15.5,4.5c0,0,15.6,7.5,30,2.1c0,0-7.8,13.3-30.5,15.9c0,0-10.8,2.2-24.1-4.3l-2.6-0.9c0,0,3.2,10.3,0.5,23.5
		c0,0-2.8,16.4-20.6,21.6c0,0,2.7-6.8,1.4-13.7c0,0-6.5-18.4,0.8-35.1c0,0-9.3,14.9-22.5,19.6c0,0-17.4,8.4-33.6-7.4
		c0,0,6.9,5,19.4-5.2c0,0,14.2-16.4,27.1-15.7c0,0-27.8-0.5-39.4-20.5c0,0-5.9-8.9-6-18.5c0,0,1.3,6.8,22.7,11.2
		C38.5,42.4,54.9,43.4,65.5,54.3"/>
	<path class="st2" d="M69,66.8c0,0-0.5-6.9,2.9-9.3c0,0,8.9-3.8,11.3,4.7c0,0,0.9,7.2-5.1,8.8C78,71,72.4,72.2,69,66.8"/>
	<path class="st3" d="M79.3,57.5c0.7-1.3,1.3-2.7,1.6-4.2"/>
	<path class="st3" d="M80.8,58.2c1.1-1,1.5-1.4,2.3-2.7"/>
	<path class="st3" d="M82.4,59.4c1.3-0.7,2.6-1.5,3.7-2.6"/>
	<path class="st3" d="M82.5,60.8c1.9,0.1,4.9-0.4,6.3-0.9"/>
	<path class="st3" d="M83.1,63.7c1.2,0,2.7-0.1,4.1-0.4"/>
	<path class="st3" d="M83,65.1c0,0,3.1,1,5.6,0.9"/>
	<path class="st3" d="M82.9,66.6c0,0,0.6,0.7,2,0.9"/>
	<path class="st3" d="M81.7,68.5c0,0,2.1,2.2,4.6,2.2"/>
	<path class="st3" d="M80.1,70.2c0,0,0.6,1.6,1.9,2.1"/>
	<path class="st3" d="M78.5,71c0,0,0.5,1.9,1.3,3.1"/>
	<path class="st3" d="M76.2,71c0,0-0.4,1.5-0.1,3.4"/>
	<path class="st3" d="M74.3,70.8c0,0-1.8,3.1-1.2,5"/>
	<path class="st3" d="M72.1,69.8c0,0-0.9,1.9-1,2.8"/>
	<path class="st3" d="M70.8,68.8c0,0-3.7,3-3.8,3.8"/>
	<path class="st3" d="M69.2,67.2c0,0-4,1.1-4,1.5"/>
	<path class="st3" d="M68.7,64.8c0,0-3.9-0.6-4.4-0.4"/>
	<path class="st3" d="M69.4,62.4c0,0-2.2-0.8-3.1-0.6"/>
	<path class="st3" d="M64.8,58.1c0,0,4.2,1.4,5.3,2.4"/>
	<path class="st3" d="M68.5,56.5c0,0,2,1.3,2.5,2.1"/>
	<path class="st3" d="M69.6,53c0,0,2.1,3.1,2.6,4.4"/>
	<path class="st3" d="M73.1,53.9c0,0,0.7,2,0.9,3"/>
	<path class="st3" d="M75.3,54.7c0,0,0.3,1.1,0.1,2"/>
	<path class="st3" d="M77.7,53.7c0,0,0,2.4-0.3,3.3"/>
	<path class="st0" d="M200.2,163.4c0,0-24.1,6.2-31.6-33.4c0,0-1.7-10.3-3.9-20.5c0,0,23.3,12.9,28.9,17.6c0,0,18,14,10.4,31.9
		L200.2,163.4z"/>
</g>
</svg>
